<svg width="33" height="40" viewBox="0 0 33 40" fill="none" xmlns="http://www.w3.org/2000/svg">
<path d="M31.0472 19.6385C29.5367 23.7795 26.312 28.8795 23.1382 32.8608C21.5548 34.847 20.0136 36.5174 18.7412 37.6307C18.1015 38.1904 17.5624 38.5802 17.1444 38.8033C16.8258 38.9733 16.6782 38.9929 16.6494 38.9982C16.4934 38.9359 16.1915 38.7652 15.7343 38.4235C15.2586 38.068 14.6826 37.5794 14.0326 36.974C12.734 35.7645 11.1794 34.1255 9.59684 32.2392C6.41677 28.4488 3.20745 23.7592 1.70527 19.6387C-1.17365 11.7416 4.98703 1 16.377 1C22.1474 1 26.6948 3.26871 29.3509 6.67937C31.9987 10.0795 32.8451 14.7099 31.0472 19.6385Z" fill="#30B0FF" stroke="white" stroke-width="2"/>
<path d="M11.1179 26.9591L11.1169 26.4591C10.9955 26.4594 10.8783 26.5038 10.7872 26.5841L11.1179 26.9591ZM15.1996 26.9056L15.5068 26.5111C15.4071 26.4334 15.2817 26.3964 15.1558 26.4075L15.1996 26.9056ZM14.1419 26.9195L14.1438 27.4195L14.1438 27.4195L14.1419 26.9195ZM12.2965 26.9437L12.3045 26.4437L12.2965 26.9437ZM11.9929 26.9459L11.5308 27.1368L12.4916 26.9815L11.9929 26.9459ZM9.83141 19.447L9.33141 19.4492C9.3315 19.4699 9.33288 19.4906 9.33555 19.5112L9.83141 19.447ZM11.6554 19.2349L12.146 19.1383C12.1419 19.1179 12.1367 19.0978 12.1302 19.0781L11.6554 19.2349ZM14.7644 27.2049L14.2723 27.1163L15.1701 27.4971L14.7644 27.2049ZM17.0055 19.7226L16.5807 19.459C16.5705 19.4754 16.5612 19.4925 16.553 19.5101L17.0055 19.7226ZM18.7368 20.2501L19.2019 20.4336C19.2095 20.4145 19.2158 20.3949 19.221 20.3749L18.7368 20.2501ZM11.5798 27.1457L11.1849 27.4523L12.068 27.0376L11.5798 27.1457ZM9.03925 19.7314L9.48346 19.5019C9.47464 19.4848 9.46485 19.4683 9.45414 19.4523L9.03925 19.7314ZM7.33015 20.3078L6.85128 20.4516C6.85716 20.4712 6.86423 20.4904 6.87246 20.5091L7.33015 20.3078ZM13.9933 26.8518L13.4945 26.8874L14.4554 27.0427L13.9933 26.8518ZM16.1548 19.3529L16.6506 19.4172C16.6533 19.3966 16.6547 19.3759 16.6547 19.3551L16.1548 19.3529ZM14.3308 19.1409L13.856 18.984C13.8495 19.0037 13.8442 19.0239 13.8402 19.0442L14.3308 19.1409ZM13.1857 26.8364L12.6992 26.952L13.6721 26.9519L13.1857 26.8364ZM14.1063 19.1592L14.606 19.142C14.6053 19.1213 14.6033 19.1007 14.6 19.0802L14.1063 19.1592ZM12.265 19.1592L11.7713 19.0803C11.7679 19.1011 11.7659 19.1222 11.7653 19.1433L12.265 19.1592ZM14.6473 29.0825C14.3766 29.3212 13.8806 29.4885 13.3084 29.4994C12.7399 29.5103 12.2085 29.3642 11.8791 29.1077L11.2647 29.8967C11.8305 30.3373 12.6119 30.5129 13.3275 30.4993C14.0394 30.4857 14.7989 30.2821 15.3087 29.8326L14.6473 29.0825ZM11.8791 29.1077C11.507 28.8179 11.2758 28.4505 11.2055 28.1226C11.1391 27.8128 11.2115 27.5433 11.4486 27.3341L10.7872 26.5841C10.244 27.0632 10.0958 27.7167 10.2277 28.3322C10.3557 28.9295 10.7418 29.4895 11.2647 29.8967L11.8791 29.1077ZM14.8924 27.3001C15.1855 27.5283 15.2679 27.8089 15.2226 28.1107C15.1736 28.4377 14.9669 28.8007 14.6473 29.0825L15.3087 29.8326C15.7695 29.4262 16.1212 28.8617 16.2116 28.259C16.3058 27.6311 16.1088 26.9798 15.5068 26.5111L14.8924 27.3001ZM14.1438 27.4195C14.3671 27.4186 15.0415 27.4214 15.2434 27.4036L15.1558 26.4075C15.0096 26.4203 14.4112 26.4185 14.1401 26.4195L14.1438 27.4195ZM11.119 27.4591C11.2992 27.4587 12.1246 27.441 12.2885 27.4436L12.3045 26.4437C12.1431 26.4412 11.233 26.4589 11.1169 26.4591L11.119 27.4591ZM12.2885 27.4436C12.9185 27.4537 13.6167 27.4214 14.1438 27.4195L14.1401 26.4195C13.5245 26.4217 12.9461 26.454 12.3045 26.4437L12.2885 27.4436ZM12.455 26.755C11.2797 23.9099 10.7098 22.3367 10.3273 19.3828L9.33555 19.5112C9.73427 22.5903 10.3407 24.2561 11.5308 27.1368L12.455 26.755ZM12.4916 26.9815C12.7093 23.9332 12.7472 22.1913 12.146 19.1383L11.1648 19.3315C11.7421 22.2628 11.7086 23.9065 11.4942 26.9103L12.4916 26.9815ZM10.3314 19.4448C10.3283 18.7367 10.3826 18.2352 10.4648 17.9215C10.5063 17.763 10.5473 17.6829 10.5691 17.6518C10.5891 17.6231 10.5547 17.6866 10.4497 17.6988C10.3515 17.7102 10.3132 17.6618 10.3546 17.6953C10.3944 17.7274 10.4643 17.8021 10.5568 17.9473C10.7402 18.2355 10.9552 18.7094 11.1806 19.3918L12.1302 19.0781C11.8933 18.3611 11.6476 17.7987 11.4004 17.4103C11.2775 17.2174 11.1396 17.0438 10.9827 16.9171C10.8274 16.7918 10.6035 16.6742 10.3342 16.7055C10.0582 16.7376 9.86748 16.91 9.74937 17.079C9.63298 17.2456 9.55406 17.4519 9.49742 17.6681C9.38324 18.1039 9.32819 18.7049 9.33141 19.4492L10.3314 19.4448ZM15.2565 27.2935C15.792 24.3177 16.159 22.7017 17.4581 19.9351L16.553 19.5101C15.2017 22.3876 14.8154 24.0987 14.2723 27.1163L15.2565 27.2935ZM15.1701 27.4971C17.0485 24.889 18.0443 23.3669 19.2019 20.4336L18.2717 20.0665C17.1575 22.89 16.2148 24.3355 14.3587 26.9127L15.1701 27.4971ZM17.4304 19.9862C17.8207 19.3573 18.1508 18.9277 18.4058 18.6738C18.5344 18.5458 18.626 18.4807 18.6796 18.4528C18.739 18.4219 18.6956 18.4638 18.5992 18.4344C18.4863 18.4 18.4584 18.3185 18.4672 18.3407C18.4782 18.3684 18.4986 18.4497 18.4999 18.612C18.5026 18.932 18.4314 19.4321 18.2527 20.1252L19.221 20.3749C19.4083 19.6487 19.5036 19.0512 19.4999 18.6038C19.4981 18.3825 19.4722 18.1625 19.397 17.9727C19.3197 17.7773 19.166 17.5617 18.8907 17.4778C18.632 17.399 18.3899 17.4761 18.2175 17.566C18.0394 17.6587 17.8662 17.8 17.7004 17.9651C17.3667 18.2972 16.9893 18.8004 16.5807 19.459L17.4304 19.9862ZM12.068 27.0376C11.404 24.0372 10.9492 22.3386 9.48346 19.5019L8.59505 19.9609C10.005 22.6896 10.4368 24.2948 11.0916 27.2537L12.068 27.0376ZM11.9748 26.839C10.016 24.3159 9.01526 22.8974 7.78784 20.1065L6.87246 20.5091C8.14697 23.4071 9.20298 24.8994 11.1849 27.4523L11.9748 26.839ZM9.45414 19.4523C9.01938 18.806 8.6225 18.3145 8.27632 17.9927C8.10433 17.8328 7.92622 17.6971 7.74547 17.6099C7.57112 17.5257 7.32656 17.4551 7.07004 17.5417C6.79548 17.6343 6.64898 17.8567 6.57914 18.0554C6.5114 18.248 6.4944 18.469 6.50147 18.6901C6.51578 19.1372 6.63494 19.7313 6.85128 20.4516L7.80902 20.164C7.60242 19.4761 7.5112 18.9781 7.50096 18.6581C7.49577 18.4956 7.51296 18.4143 7.52254 18.387C7.53002 18.3657 7.50396 18.4506 7.38963 18.4892C7.29333 18.5217 7.24879 18.4805 7.3109 18.5105C7.36661 18.5374 7.46141 18.6004 7.59544 18.7251C7.8613 18.9722 8.2089 19.3927 8.62437 20.0104L9.45414 19.4523ZM14.4554 27.0427C15.6454 24.1621 16.2519 22.4962 16.6506 19.4172L15.6589 19.2887C15.2764 22.2426 14.7065 23.8159 13.5311 26.6609L14.4554 27.0427ZM14.492 26.8162C14.2775 23.8125 14.244 22.1688 14.8214 19.2375L13.8402 19.0442C13.2389 22.0972 13.2769 23.8392 13.4945 26.8874L14.492 26.8162ZM16.6547 19.3551C16.658 18.6108 16.6029 18.0098 16.4887 17.574C16.4321 17.3578 16.3532 17.1515 16.2368 16.985C16.1187 16.8159 15.9279 16.6435 15.6519 16.6114C15.3827 16.5801 15.1588 16.6977 15.0035 16.823C14.8465 16.9497 14.7086 17.1233 14.5858 17.3163C14.3386 17.7047 14.0929 18.267 13.856 18.984L14.8055 19.2977C15.031 18.6153 15.246 18.1414 15.4294 17.8533C15.5219 17.708 15.5917 17.6333 15.6315 17.6012C15.6729 17.5678 15.6347 17.6161 15.5364 17.6047C15.4314 17.5925 15.397 17.529 15.4171 17.5577C15.4388 17.5889 15.4799 17.669 15.5214 17.8275C15.6036 18.1411 15.6578 18.6427 15.6548 19.3508L16.6547 19.3551ZM13.6721 26.9519C14.3824 23.9601 14.7122 22.2389 14.606 19.142L13.6066 19.1763C13.7084 22.1456 13.4001 23.7684 12.6992 26.7209L13.6721 26.9519ZM13.6721 26.7208C12.9706 23.7692 12.67 22.1447 12.7647 19.1752L11.7653 19.1433C11.6665 22.2374 11.9877 23.9584 12.6992 26.952L13.6721 26.7208ZM14.6 19.0802C14.4821 18.3424 14.3299 17.7548 14.1469 17.3385C14.056 17.1318 13.9458 16.9401 13.8072 16.7926C13.6683 16.6447 13.4593 16.5 13.1856 16.5C12.912 16.5 12.703 16.6447 12.5641 16.7926C12.4255 16.9402 12.3154 17.1318 12.2245 17.3386C12.0414 17.7548 11.8893 18.3424 11.7713 19.0803L12.7587 19.2382C12.8709 18.5365 13.0064 18.0445 13.1399 17.7411C13.2072 17.5879 13.2625 17.5097 13.293 17.4773C13.323 17.4453 13.2867 17.5 13.1857 17.5C13.0847 17.5 13.0483 17.4453 13.0784 17.4773C13.1088 17.5097 13.1641 17.5879 13.2314 17.741C13.3649 18.0445 13.5004 18.5365 13.6126 19.2381L14.6 19.0802Z" fill="#F5F3D6"/>
<path d="M13.4228 4.85984C11.4186 6.45099 11.6497 9.05099 13.3795 11.1113C15.1935 13.2016 17.7663 13.9551 19.6869 12.321C21.7116 10.8396 21.5164 8.23927 19.7302 6.06951C18.0004 4.00916 15.427 3.26868 13.4228 4.85984ZM13.4228 4.85984L15.2601 7.247M19.5023 12.4718L19.8758 12.1752L24.6501 17.8618L24.2766 18.1584L19.5023 12.4718ZM19.5023 12.4718L16.0917 8.26445M12.3358 6.19985L13.865 8.32528M13.865 8.32528L14.6966 9.34272M13.865 8.32528L12.4789 9.34272M13.865 8.32528L15.2601 7.247M14.6966 9.34272L17.8482 13.1715M14.6966 9.34272L12.973 10.5777M14.6966 9.34272L16.0917 8.26445M15.2601 7.247L16.0917 8.26445M15.2601 7.247L16.6551 6.16873M16.0917 8.26445L17.4868 7.18618M14.955 4.10063L16.6551 6.16873M16.6551 6.16873L17.4868 7.18618M16.6551 6.16873L18.2889 4.78248M17.4868 7.18618L20.7547 11.1113M17.4868 7.18618L19.3841 5.68626M16.4145 13.0946L21.0881 9.31159M13.865 11.6218L20.2589 6.79571M14.955 12.4718L20.6792 8.0119M12.3358 7.84697L16.8428 4.13459M23.8954 18.4459L25.0161 17.5561L28 21.1103L26.8793 22L23.8954 18.4459Z" stroke="white" stroke-width="0.5" stroke-linecap="round"/>
</svg>
