<svg width="33" height="40" viewBox="0 0 33 40" fill="none" xmlns="http://www.w3.org/2000/svg">
<path d="M31.0472 19.6385C29.5367 23.7795 26.312 28.8795 23.1382 32.8608C21.5548 34.847 20.0136 36.5174 18.7412 37.6307C18.1015 38.1904 17.5624 38.5802 17.1444 38.8033C16.8258 38.9733 16.6782 38.9929 16.6494 38.9982C16.4934 38.9359 16.1915 38.7652 15.7343 38.4235C15.2586 38.068 14.6826 37.5794 14.0326 36.974C12.734 35.7645 11.1794 34.1255 9.59684 32.2392C6.41677 28.4488 3.20745 23.7592 1.70527 19.6387C-1.17365 11.7416 4.98703 1 16.377 1C22.1474 1 26.6948 3.26871 29.3509 6.67937C31.9987 10.0795 32.8451 14.7099 31.0472 19.6385Z" fill="#30B0FF" stroke="white" stroke-width="2"/>
<path d="M18.4384 20.8464C17.2197 21.3428 14.8033 20.3591 11.4715 16.2415C9.83973 14.2249 9.63009 12.6308 9.8369 12.2189C11.5757 9.69518 13.8165 7.79192 16.2393 6.78101C16.6727 6.64915 18.1628 7.15566 19.7946 9.17223C22.9901 13.1214 23.7082 16.0114 23.2402 16.768C22.0702 18.6596 20.4696 20.0191 18.4384 20.8464Z" fill="#6DC7FF"/>
<path d="M22.2367 19.1324C22.4258 18.8321 22.7637 18.1816 22.6028 17.9828C21.5757 18.8933 21.3214 19.106 20.0418 20.158C20.2027 20.3568 20.8892 20.1372 21.2124 20.0025C21.5465 19.7746 22.1199 19.255 22.2367 19.1324Z" fill="white"/>
<path d="M22.3796 19.042L21.0991 20.1296L24.0183 23.7372L25.2988 22.6497L22.3796 19.042Z" fill="white"/>
<path d="M18.4384 20.8464L18.8003 21.7862L18.8003 21.7862L18.4384 20.8464ZM9.8369 12.2189L9.03015 11.6383L8.99011 11.6964L8.95836 11.7596L9.8369 12.2189ZM23.2402 16.768L24.0745 17.3065L23.2402 16.768ZM16.2393 6.78101L15.9616 5.81139L15.9149 5.8256L15.8697 5.84444L16.2393 6.78101ZM22.6028 17.9828L23.365 17.3354L22.7225 16.5414L21.9578 17.2193L22.6028 17.9828ZM22.2367 19.1324L22.9424 19.8374L23.0125 19.764L23.0668 19.6777L22.2367 19.1324ZM21.2124 20.0025L21.5815 20.9392L21.6743 20.9005L21.7578 20.8436L21.2124 20.0025ZM20.0418 20.158L19.4251 19.3703L18.6405 20.0154L19.2797 20.8053L20.0418 20.158ZM21.0991 20.1296L20.4701 19.3522L19.7079 19.9995L20.3369 20.7769L21.0991 20.1296ZM22.3796 19.042L23.1418 18.3946L22.5127 17.6172L21.7506 18.2646L22.3796 19.042ZM25.2988 22.6497L25.9278 23.427C26.3488 23.0695 26.4084 22.4316 26.061 22.0023L25.2988 22.6497ZM24.0183 23.7372L23.2562 24.3846C23.6036 24.8139 24.2264 24.8721 24.6474 24.5146L24.0183 23.7372ZM10.7093 16.8889C12.4173 18.9997 13.9394 20.37 15.2476 21.1492C16.5235 21.9091 17.773 22.2046 18.8003 21.7862L18.0766 19.9067C17.8851 19.9847 17.3171 20.0365 16.2472 19.3992C15.2095 18.7812 13.8575 17.601 12.2337 15.5941L10.7093 16.8889ZM12.2337 15.5941C11.4841 14.6678 11.0886 13.8719 10.9016 13.3024C10.8075 13.0159 10.7707 12.8005 10.7615 12.6637C10.7497 12.4884 10.7875 12.5347 10.7154 12.6782L8.95836 11.7596C8.78292 12.1091 8.76935 12.5091 8.78969 12.8116C8.81263 13.1526 8.8914 13.539 9.02786 13.9546C9.30189 14.7892 9.82715 15.7987 10.7093 16.8889L12.2337 15.5941ZM19.0324 9.8196C20.582 11.7346 21.5011 13.3572 21.9755 14.5518C22.2136 15.1514 22.3294 15.6176 22.3674 15.9421C22.4111 16.3153 22.3353 16.3437 22.4059 16.2295L24.0745 17.3065C24.3791 16.814 24.389 16.1974 24.3298 15.6925C24.265 15.1389 24.0893 14.4939 23.8069 13.7828C23.2403 12.356 22.2027 10.559 20.5567 8.52487L19.0324 9.8196ZM20.5567 8.52487C19.6746 7.43468 18.8037 6.71875 18.054 6.28817C17.6806 6.07376 17.3246 5.92284 17.0018 5.83655C16.7155 5.76 16.3293 5.69953 15.9616 5.81139L16.5169 7.75062C16.3659 7.79655 16.3286 7.74995 16.4945 7.79431C16.624 7.82892 16.8238 7.90594 17.0811 8.05374C17.5928 8.3476 18.2828 8.89322 19.0324 9.8196L20.5567 8.52487ZM10.6436 12.7995C12.29 10.41 14.3875 8.64441 16.6088 7.71757L15.8697 5.84444C13.2455 6.93942 10.8614 8.98039 9.03015 11.6383L10.6436 12.7995ZM18.8003 21.7862C21.0263 20.8795 22.7923 19.3795 24.0745 17.3065L22.4059 16.2295C21.3481 17.9397 19.913 19.1587 18.0766 19.9067L18.8003 21.7862ZM21.8406 18.6302C21.72 18.4811 21.6789 18.3296 21.6649 18.2396C21.6514 18.1521 21.6583 18.0921 21.6602 18.0768C21.6636 18.0502 21.6639 18.0701 21.6338 18.1471C21.5766 18.2933 21.4793 18.4718 21.4067 18.5872L23.0668 19.6777C23.1832 19.4927 23.3494 19.1958 23.4682 18.8919C23.5261 18.744 23.5924 18.5453 23.6199 18.3314C23.6415 18.1631 23.6758 17.7196 23.365 17.3354L21.8406 18.6302ZM21.7578 20.8436C22.1621 20.5679 22.7884 19.9989 22.9424 19.8374L21.5311 18.4274C21.5319 18.4265 21.5228 18.436 21.499 18.4588C21.4773 18.4796 21.4489 18.5062 21.4149 18.5376C21.3467 18.6004 21.2609 18.6775 21.1681 18.7583C20.9727 18.9282 20.7828 19.0824 20.6669 19.1614L21.7578 20.8436ZM19.2797 20.8053C19.5905 21.1895 20.0222 21.2371 20.1877 21.2465C20.3979 21.2586 20.6008 21.2286 20.7534 21.1978C21.0669 21.1344 21.3825 21.0222 21.5815 20.9392L20.8432 19.0658C20.7191 19.1175 20.5298 19.1824 20.3791 19.2128C20.2995 19.2289 20.2805 19.2249 20.3067 19.2264C20.3218 19.2273 20.3806 19.2315 20.462 19.2613C20.5457 19.2921 20.6834 19.3616 20.804 19.5106L19.2797 20.8053ZM20.6586 20.9456C21.9441 19.8887 22.2084 19.6676 23.2478 18.7463L21.9578 17.2193C20.9429 18.1189 20.6987 18.3232 19.4251 19.3703L20.6586 20.9456ZM21.7281 20.9069L23.0086 19.8194L21.7506 18.2646L20.4701 19.3522L21.7281 20.9069ZM24.6698 21.8723L23.3893 22.9599L24.6474 24.5146L25.9278 23.427L24.6698 21.8723ZM24.7805 23.0899L21.8613 19.4822L20.3369 20.7769L23.2562 24.3846L24.7805 23.0899ZM21.6174 19.6893L24.5366 23.297L26.061 22.0023L23.1418 18.3946L21.6174 19.6893Z" fill="white"/>
<path d="M15 24C15 26.2091 13.2091 28 11 28C8.79086 28 7 26.2091 7 24C7 21.7909 8.79086 20 11 20C13.2091 20 15 21.7909 15 24Z" fill="#F4ED8B"/>
<path d="M9.66667 22C9.66667 22.3682 9.36819 22.6667 9 22.6667C8.63181 22.6667 8.33333 22.3682 8.33333 22C8.33333 21.6318 8.63181 21.3333 9 21.3333C9.36819 21.3333 9.66667 21.6318 9.66667 22Z" fill="white"/>
<path d="M13.6667 22C13.6667 22.3682 13.3682 22.6667 13 22.6667C12.6318 22.6667 12.3333 22.3682 12.3333 22C12.3333 21.6318 12.6318 21.3333 13 21.3333C13.3682 21.3333 13.6667 21.6318 13.6667 22Z" fill="white"/>
<path d="M11 24.6667C11 25.0349 10.7015 25.3333 10.3333 25.3333C9.96514 25.3333 9.66667 25.0349 9.66667 24.6667C9.66667 24.2985 9.96514 24 10.3333 24C10.7015 24 11 24.2985 11 24.6667Z" fill="white"/>
<path d="M13.6667 26C13.6667 26.3682 13.3682 26.6667 13 26.6667C12.6318 26.6667 12.3333 26.3682 12.3333 26C12.3333 25.6318 12.6318 25.3333 13 25.3333C13.3682 25.3333 13.6667 25.6318 13.6667 26Z" fill="white"/>
</svg>
